<svg xmlns="http://www.w3.org/2000/svg" version="1.1" xmlns:xlink="http://www.w3.org/1999/xlink" xmlns:svgjs="http://svgjs.com/svgjs" width="1440" height="560" preserveAspectRatio="none" viewBox="0 0 1440 560"><g mask="url(&quot;#SvgjsMask1000&quot;)" fill="none"><rect width="1440" height="560" x="0" y="0" fill="#0e2a47"></rect><path d="M 0,18 C 57.6,60.4 172.8,214.2 288,230 C 403.2,245.8 460.8,104.8 576,97 C 691.2,89.2 748.8,197.6 864,191 C 979.2,184.4 1036.8,58.8 1152,64 C 1267.2,69.2 1382.4,186.4 1440,217L1440 560L0 560z" fill="#184a7e"></path><path d="M 0,427 C 96,416.8 288,357.6 480,376 C 672,394.4 768,517.8 960,519 C 1152,520.2 1344,409.4 1440,382L1440 560L0 560z" fill="#2264ab"></path></g><defs><mask id="SvgjsMask1000"><rect width="1440" height="560" fill="#ffffff"></rect></mask></defs></svg>